<svg xmlns="http://www.w3.org/2000/svg" viewBox="0 0 80 80"><path fill="#f78f8f" d="M40.023,72.378C36.576,69.601,3.5,42.542,3.5,27.087C3.5,16.287,12.213,7.5,22.923,7.5 c6.871,0,13.094,3.564,16.647,9.535L40,17.757l0.43-0.722C43.983,11.064,50.207,7.5,57.077,7.5c10.71,0,19.423,8.787,19.423,19.587 C76.5,46.654,43.55,69.943,40.023,72.378z"/><path fill="#c74343" d="M57.077,8C67.511,8,76,16.562,76,27.087C76,45.93,44.809,68.43,40.046,71.754 C35.38,67.97,4,41.958,4,27.087C4,16.562,12.489,8,22.923,8c6.693,0,12.755,3.473,16.218,9.291L40,18.735l0.859-1.444 C44.322,11.473,50.384,8,57.077,8 M57.077,7C49.816,7,43.482,10.928,40,16.78C36.518,10.928,30.184,7,22.923,7 C11.92,7,3,15.993,3,27.087C3,43.741,40,73,40,73s37-24.84,37-45.913C77,15.993,68.08,7,57.077,7L57.077,7z"/></svg>